<svg width="24" height="24" viewBox="0 0 24 24" fill="none" xmlns="http://www.w3.org/2000/svg">
  <path d="M12 2C7.58172 2 4 5.58172 4 10C4 14.4183 7.58172 18 12 18C16.4183 18 20 14.4183 20 10C20 5.58172 16.4183 2 12 2ZM12 16C8.68629 16 6 13.3137 6 10C6 6.68629 8.68629 4 12 4C15.3137 4 18 6.68629 18 10C18 13.3137 15.3137 16 12 16Z" fill="currentColor"/>
  <path d="M12 22V18" stroke="currentColor" stroke-width="2" stroke-linecap="round"/>
  <path d="M12 14C14.2091 14 16 12.2091 16 10C16 7.79086 14.2091 6 12 6C9.79086 6 8 7.79086 8 10C8 12.2091 9.79086 14 12 14Z" fill="currentColor"/>
  <path d="M8 10L16 10" stroke="currentColor" stroke-width="2"/>
</svg> 