<svg width="24" height="24" viewBox="0 0 24 24" fill="none" xmlns="http://www.w3.org/2000/svg">
  <path d="M12 22C16.4183 22 20 18.4183 20 14C20 9.58172 16.4183 6 12 6C7.58172 6 4 9.58172 4 14C4 18.4183 7.58172 22 12 22ZM12 20C8.68629 20 6 17.3137 6 14C6 10.6863 8.68629 8 12 8C15.3137 8 18 10.6863 18 14C18 17.3137 15.3137 20 12 20Z" fill="currentColor"/>
  <path d="M12 2V6" stroke="currentColor" stroke-width="2" stroke-linecap="round"/>
  <path d="M12 16C13.6569 16 15 14.6569 15 13C15 11.3431 13.6569 10 12 10C10.3431 10 9 11.3431 9 13C9 14.6569 10.3431 16 12 16Z" fill="currentColor"/>
</svg> 